<svg xmlns="http://www.w3.org/2000/svg" width="44.88" height="58" viewBox="0 0 512 390.034">
  <g id="swap" transform="translate(512 -60.983) rotate(90)">
    <g id="Group_3" data-name="Group 3">
      <g id="Group_2" data-name="Group 2">
        <path id="Path_6" data-name="Path 6" d="M268,125.671l-90-120c-5.654-7.559-18.34-7.559-23.994,0l-90,120a15.008,15.008,0,0,0,12,23.994h45v285a14.991,14.991,0,0,0,15,15h60a14.822,14.822,0,0,0,14.8-15v-285H256A15.009,15.009,0,0,0,268,125.671Z" fill="#fcfcfc"/>
      </g>
    </g>
    <g id="Group_5" data-name="Group 5">
      <g id="Group_4" data-name="Group 4">
        <path id="Path_7" data-name="Path 7" d="M436,362.005H390.8V77A14.822,14.822,0,0,0,376,62H316a14.991,14.991,0,0,0-15,15V362H256A15.007,15.007,0,0,0,244,386l90,120A14.994,14.994,0,0,0,358,506l90-120A15.009,15.009,0,0,0,436,362.005Z" fill="#fcfcfc"/>
      </g>
    </g>
  </g>
</svg>
